<svg xmlns="http://www.w3.org/2000/svg" xmlns:xlink="http://www.w3.org/1999/xlink" width="180" height="54" viewBox="0 0 180 54">
    <defs>
        <path id="a" d="M.146.172h10.165v10.86H.146z"/>
    </defs>
    <g fill="none" fill-rule="evenodd">
        <path fill="#000" d="M48.653 11.133c0-.554.116-1.086.35-1.594.233-.508.565-.95.994-1.329.429-.377.948-.681 1.558-.912.61-.232 1.299-.347 2.067-.347.708 0 1.351.115 1.931.347a4.47 4.47 0 0 1 1.502.97c.422.416.746.905.972 1.467.226.563.338 1.175.338 1.837h-2.597c0-.646-.189-1.155-.565-1.525-.376-.37-.903-.554-1.581-.554-.678 0-1.205.17-1.581.508-.377.34-.565.709-.565 1.11 0 .43.18.762.542.993.362.23.813.439 1.355.624a71.94 71.94 0 0 0 1.774.577c.64.2 1.23.47 1.773.81.542.338.994.781 1.355 1.328.362.547.542 1.26.542 2.137a3.35 3.35 0 0 1-.372 1.525 4.356 4.356 0 0 1-1.05 1.33 5.283 5.283 0 0 1-1.638.946c-.64.24-1.352.359-2.135.359-.798 0-1.51-.116-2.135-.347a4.486 4.486 0 0 1-1.592-.982 4.322 4.322 0 0 1-1.005-1.502 5.043 5.043 0 0 1-.35-1.906h2.71c0 .647.21 1.174.633 1.583.421.408 1.001.612 1.739.612.798 0 1.393-.174 1.784-.52.392-.347.588-.751.588-1.213 0-.447-.181-.794-.542-1.04-.362-.246-.814-.466-1.356-.659a31.312 31.312 0 0 0-1.773-.566 7.5 7.5 0 0 1-1.773-.762 4.368 4.368 0 0 1-1.355-1.26c-.362-.515-.542-1.197-.542-2.045M61.638 8.453h2.26v2.542h2.258v2.426h-2.259v4.39c0 .463.132.829.395 1.098.264.27.622.404 1.073.404.12 0 .218-.003.294-.011.075-.008.143-.02.203-.035a.858.858 0 0 0 .18-.07v2.311a2.002 2.002 0 0 1-.36.116 3.06 3.06 0 0 1-.882.116 3.67 3.67 0 0 1-1.411-.266 3.049 3.049 0 0 1-1.107-.774 3.668 3.668 0 0 1-.723-1.202 4.453 4.453 0 0 1-.26-1.571V13.42h-1.58v-2.195h.677c.828 0 1.242-.424 1.242-1.271V8.453zM71.443 19.66c.678 0 1.224-.204 1.638-.612.414-.408.621-.936.621-1.583v-.462c-.768 0-1.386.034-1.852.104-.467.069-.832.17-1.095.3-.264.131-.441.289-.531.474a1.4 1.4 0 0 0-.136.624c0 .292.128.558.384.797s.58.358.971.358m.79-8.78c.588 0 1.13.103 1.627.311.497.208.926.497 1.288.867.361.37.643.808.847 1.317.203.508.305 1.063.305 1.664v6.585h-1.92l-.452-1.04a4.99 4.99 0 0 1-.79.578 4.39 4.39 0 0 1-.927.404 4.002 4.002 0 0 1-1.22.173c-1.129 0-1.995-.28-2.597-.843-.603-.562-.903-1.282-.903-2.16 0-.524.101-1.006.304-1.444.204-.44.546-.817 1.028-1.133.482-.315 1.118-.562 1.909-.74.79-.176 1.78-.265 2.97-.265 0-.585-.154-1.04-.463-1.363-.309-.324-.72-.485-1.231-.485-.346 0-.621.061-.824.184a2.043 2.043 0 0 0-.486.393c-.136.17-.226.362-.271.578h-2.598c.06-.493.2-.955.418-1.387.218-.43.516-.808.892-1.132a4.372 4.372 0 0 1 1.344-.774 5.011 5.011 0 0 1 1.75-.289M83.483 10.88c.12 0 .226.007.316.022.09.016.173.031.248.047l.226.046v2.773a8.485 8.485 0 0 0-.248-.047 4.922 4.922 0 0 0-.283-.046 2.807 2.807 0 0 0-.372-.023c-.633 0-1.149.212-1.548.636-.399.423-.598.982-.598 1.675v5.661h-2.598v-10.63h1.92l.452 1.156c.18-.23.399-.439.655-.624.21-.169.47-.32.78-.45.308-.131.658-.197 1.05-.197M87.232 8.453h2.259v2.542h2.259v2.426h-2.26v4.39c0 .463.132.829.396 1.098.263.27.621.404 1.073.404.12 0 .218-.003.294-.011.075-.008.143-.02.203-.035a.854.854 0 0 0 .18-.07v2.311a2.002 2.002 0 0 1-.36.116 3.06 3.06 0 0 1-.882.116 3.67 3.67 0 0 1-1.411-.266 3.046 3.046 0 0 1-1.107-.774 3.668 3.668 0 0 1-.723-1.202 4.448 4.448 0 0 1-.26-1.571V13.42h-1.58v-2.195h.677c.828 0 1.242-.424 1.242-1.271V8.453zM97.735 21.74a4.457 4.457 0 0 1-1.694-.312 3.695 3.695 0 0 1-1.321-.902 4.11 4.11 0 0 1-.859-1.42c-.203-.555-.305-1.18-.305-1.872v-6.24h2.598v5.893c0 .693.2 1.252.599 1.675.398.424.914.636 1.547.636.632 0 1.148-.212 1.547-.636.399-.423.599-.982.599-1.675v-5.892h2.597v10.629h-1.92l-.451-1.04a5.406 5.406 0 0 1-.836.578 4.416 4.416 0 0 1-.926.404 3.845 3.845 0 0 1-1.175.174M107.837 16.31c0 .877.248 1.579.745 2.102.497.524 1.114.786 1.852.786s1.355-.262 1.852-.786c.497-.523.746-1.225.746-2.103 0-.878-.249-1.579-.746-2.102-.497-.524-1.114-.786-1.852-.786s-1.355.262-1.852.786c-.497.523-.745 1.224-.745 2.102m2.936-5.43c.647 0 1.265.135 1.852.404.587.27 1.103.648 1.547 1.133a5.58 5.58 0 0 1 1.062 1.721c.263.663.395 1.387.395 2.172 0 .786-.132 1.51-.395 2.172a5.572 5.572 0 0 1-1.062 1.722c-.444.485-.96.863-1.547 1.132a4.39 4.39 0 0 1-1.852.405 3.62 3.62 0 0 1-1.14-.162 5.983 5.983 0 0 1-.848-.347 3.67 3.67 0 0 1-.723-.531v4.621h-2.597V10.995h1.92l.452 1.04c.225-.216.489-.409.79-.578.256-.139.565-.27.926-.393a3.766 3.766 0 0 1 1.22-.185M134.716 7.067v14.557h-2.71V15.5h-5.987v6.123h-2.71V7.067h2.71v5.776h5.986V7.067zM139.416 16.31c0 .877.249 1.579.745 2.102.497.524 1.115.786 1.853.786.737 0 1.355-.262 1.852-.786.497-.523.745-1.225.745-2.103 0-.878-.248-1.579-.745-2.102-.497-.524-1.115-.786-1.852-.786-.738 0-1.356.262-1.853.786-.496.523-.745 1.224-.745 2.102m7.793 0c0 .755-.14 1.46-.418 2.115a5.64 5.64 0 0 1-1.13 1.721 5.342 5.342 0 0 1-1.648 1.167 4.756 4.756 0 0 1-2 .428 4.756 4.756 0 0 1-1.998-.428 5.335 5.335 0 0 1-1.65-1.167 5.644 5.644 0 0 1-1.129-1.721 5.34 5.34 0 0 1-.418-2.115c0-.754.14-1.459.418-2.114a5.65 5.65 0 0 1 1.13-1.721 5.352 5.352 0 0 1 1.649-1.167 4.765 4.765 0 0 1 1.999-.428c.707 0 1.374.143 1.999.428a5.36 5.36 0 0 1 1.649 1.167c.474.493.85 1.066 1.129 1.721.278.655.418 1.36.418 2.114M153.14 21.74a4.457 4.457 0 0 1-1.694-.312 3.697 3.697 0 0 1-1.321-.902 4.11 4.11 0 0 1-.859-1.42c-.203-.555-.305-1.18-.305-1.872v-6.24h2.598v5.893c0 .693.2 1.252.599 1.675.399.424.915.636 1.547.636.633 0 1.148-.212 1.547-.636.399-.423.599-.982.599-1.675v-5.892h2.597v10.629h-1.92l-.451-1.04a5.406 5.406 0 0 1-.836.578 4.42 4.42 0 0 1-.926.404 3.845 3.845 0 0 1-1.175.174M162.82 18.274c.06.354.225.654.496.9.271.247.633.37 1.084.37.452 0 .81-.119 1.073-.358.264-.238.395-.504.395-.797 0-.246-.131-.44-.395-.578a5.431 5.431 0 0 0-.982-.381 56.106 56.106 0 0 0-1.276-.358 4.838 4.838 0 0 1-1.277-.543 3.242 3.242 0 0 1-.982-.924c-.264-.378-.396-.875-.396-1.49 0-.432.087-.844.26-1.237a2.94 2.94 0 0 1 .757-1.028 3.918 3.918 0 0 1 1.174-.705 4.183 4.183 0 0 1 1.537-.266c1.25 0 2.21.309 2.88.924.67.617 1.064 1.387 1.185 2.311h-2.485c-.06-.23-.222-.462-.485-.693-.264-.23-.591-.346-.983-.346-.391 0-.696.1-.914.3a.964.964 0 0 0-.328.74c0 .246.132.438.395.577.264.138.591.265.983.381.391.116.817.24 1.276.37.46.13.885.32 1.276.566.392.246.72.566.983.959s.395.905.395 1.537c0 .431-.09.843-.27 1.236-.181.392-.438.736-.769 1.028a3.814 3.814 0 0 1-1.208.705 4.53 4.53 0 0 1-1.593.266c-1.355 0-2.383-.316-3.083-.948-.7-.631-1.103-1.47-1.208-2.518h2.484z"/>
        <g transform="translate(169.517 10.708)">
            <mask id="b" fill="#fff">
                <use xlink:href="#a"/>
            </mask>
            <path fill="#000" d="M5.341 2.713c-.677 0-1.23.2-1.66.601-.429.4-.704.894-.824 1.48h4.97a2.73 2.73 0 0 0-.825-1.48c-.43-.4-.983-.6-1.66-.6zm4.63 4.969c-.134.4-.342.8-.62 1.2a5.03 5.03 0 0 1-1.017 1.075c-.399.316-.85.575-1.355.775-.505.2-1.05.3-1.638.3a4.754 4.754 0 0 1-1.999-.428 5.332 5.332 0 0 1-1.649-1.167 5.632 5.632 0 0 1-1.129-1.72 5.339 5.339 0 0 1-.418-2.115c0-.755.14-1.46.418-2.115a5.642 5.642 0 0 1 1.13-1.721A5.352 5.352 0 0 1 3.341.599a4.764 4.764 0 0 1 2-.427 4.768 4.768 0 0 1 3.5 1.501c.452.478.81 1.052 1.073 1.722.264.67.396 1.406.396 2.207 0 .123-.008.243-.023.358l-.045.335c-.015.124-.03.239-.045.347H2.97c.12.523.376.963.768 1.317.39.354.926.531 1.603.531a2.8 2.8 0 0 0 .87-.115c.233-.077.433-.17.599-.278.18-.123.33-.262.451-.415h2.71z" mask="url(#b)"/>
        </g>
        <path fill="#000" d="M50.335 37.411c.246 0 .485-.055.717-.165.232-.11.439-.262.618-.455a2.31 2.31 0 0 0 .437-.687c.11-.265.166-.554.166-.869 0-.314-.056-.604-.166-.868a2.308 2.308 0 0 0-.437-.687 2.02 2.02 0 0 0-.618-.456 1.658 1.658 0 0 0-.717-.165h-.9v4.352h.9zm-1.795.869v-6.09h1.795c.378 0 .739.08 1.082.237.343.157.643.374.902.651.258.277.464.6.618.968.154.368.23.765.23 1.19 0 .424-.076.82-.23 1.189a3.23 3.23 0 0 1-.618.967c-.259.277-.56.495-.902.652a2.567 2.567 0 0 1-1.082.236H48.54zM65.402 37.411v.869h-4.014v-6.09h3.922v.87h-3.027v1.642h2.787v.873h-2.787v1.836zM73.147 32.19h.946l1.657 4.688 1.652-4.687h.946l-2.174 6.089h-.849zM90.347 37.411v.869h-4.015v-6.09h3.923v.87h-3.027v1.642h2.787v.873h-2.787v1.836zM102.443 37.411v.869H98.71v-6.09h.895v5.221zM114.631 35.235a2.463 2.463 0 0 0-.6-1.631 1.927 1.927 0 0 0-.618-.472 1.654 1.654 0 0 0-.72-.167c-.246 0-.485.056-.717.167-.233.112-.439.27-.618.472a2.442 2.442 0 0 0-.603 1.631 2.423 2.423 0 0 0 .603 1.626c.18.203.385.361.618.475.232.113.471.17.717.17s.486-.057.72-.17c.234-.114.44-.272.618-.475a2.463 2.463 0 0 0 .6-1.626m.895 0c0 .438-.076.844-.23 1.218a3.26 3.26 0 0 1-.619.982c-.258.28-.559.499-.902.656a2.564 2.564 0 0 1-1.082.236c-.378 0-.739-.079-1.082-.236a2.809 2.809 0 0 1-.902-.656 3.252 3.252 0 0 1-.618-.982 3.176 3.176 0 0 1-.23-1.218 3.237 3.237 0 0 1 .849-2.2c.258-.28.558-.498.901-.655a2.564 2.564 0 0 1 1.082-.236c.379 0 .74.078 1.082.236.343.157.644.376.902.656a3.244 3.244 0 0 1 .85 2.2M125.925 35.188a.88.88 0 0 0 .376-.082c.118-.056.223-.132.316-.23a1.105 1.105 0 0 0 .3-.755 1.08 1.08 0 0 0-.3-.743 1.123 1.123 0 0 0-.316-.231.842.842 0 0 0-.376-.088h-1.279v2.13h1.279zm0-2.997c.258 0 .502.05.731.153a1.933 1.933 0 0 1 1.006 1.03c.1.234.15.483.15.747a1.944 1.944 0 0 1-1.156 1.78 1.75 1.75 0 0 1-.731.156h-1.279v2.223h-.895v-6.09h2.174zM141.795 32.19v6.09h-.9v-3.772l-1.698 3.772h-.567l-1.703-3.772v3.772h-.895v-6.09h.752l2.127 4.688 2.128-4.687zM154.408 37.411v.869h-4.014v-6.09h3.922v.87h-3.027v1.642h2.787v.873h-2.787v1.836zM167.307 32.19v6.09h-.756l-2.884-4.352v4.352h-.896v-6.09h.753l2.883 4.348v-4.347zM175.338 32.19h4.49v.87h-1.8v5.22h-.895v-5.22h-1.795z"/>
        <path stroke="#06F" stroke-linecap="round" stroke-linejoin="round" stroke-width="2.218" d="M26.606 21.062s7.532 4.79 6.313 16.104l-15.833-9.368-15.834 9.368C.033 25.852 7.565 21.062 7.565 21.062M17.086 52.874s1.79-1.775 3.829-5.473c1.65-2.994-.47-6.698-3.83-6.698-3.36 0-5.478 3.704-3.828 6.698 2.038 3.698 3.829 5.473 3.829 5.473z"/>
        <path stroke="#06F" stroke-linecap="round" stroke-linejoin="round" stroke-width="2.218" d="M20.177 35.629l4.45 2.628c.93-3.265 1.66-7.098 1.957-11.524 1.272-18.925-9.498-25.612-9.498-25.612S6.316 7.808 7.587 26.733c.298 4.426 1.027 8.26 1.958 11.524l4.45-2.628"/>
    </g>
</svg>
